<?xml version="1.0" encoding="utf-8"?>
<!-- Generator: Adobe Illustrator 19.2.1, SVG Export Plug-In . SVG Version: 6.00 Build 0)  -->
<svg version="1.1" id="Layer_1" xmlns="http://www.w3.org/2000/svg" xmlns:xlink="http://www.w3.org/1999/xlink" x="0px" y="0px"
	 viewBox="0 0 58.2 58.2" enable-background="new 0 0 58.2 58.2" xml:space="preserve">
<path opacity="0.66" fill="#3E474E" enable-background="new    " d="M29.1,58.2c-16,0-29.1-13-29.1-29.1S13,0,29.1,0
	s29.1,13,29.1,29.1S45.1,58.2,29.1,58.2z M29.1,2.2C14.2,2.2,2.2,14.3,2.2,29.1S14.3,56,29.1,56S56,43.9,56,29.1S44,2.2,29.1,2.2z
	 M25.4,43.4h5.9V29.1h3.9l0.5-4.9h-4.5v-2.5c0-1.3,0.1-2,2-2h2.5v-4.9h-4c-4.7,0-6.4,2.4-6.4,6.4v3h-3v4.9h3v14.3H25.4z"/>
</svg>
