<?xml version="1.0" encoding="utf-8"?>
<!-- Generator: Adobe Illustrator 19.2.1, SVG Export Plug-In . SVG Version: 6.00 Build 0)  -->
<svg version="1.1" id="Layer_1" xmlns="http://www.w3.org/2000/svg" xmlns:xlink="http://www.w3.org/1999/xlink" x="0px" y="0px"
	 viewBox="0 0 56.6 37" enable-background="new 0 0 56.6 37" xml:space="preserve">
<path id="XMLID_14_" fill="#9A9C9F" d="M0.3,21.9c0-0.2,0.1-0.5,0.1-0.7c0.2-2,0.9-3.8,1.8-5.6c1.1-1.9,2.5-3.5,4.1-5
	c0,0.5,0,0.9,0,1.4c0,0.1-0.1,0.1-0.1,0.2c-1.9,2.1-3.1,4.6-3.6,7.4c-0.2,1-0.2,2-0.2,2.9c0.1,2.1,0.8,4,2.2,5.7
	c1.1,1.3,2.4,2.2,3.8,2.9c1.7,0.8,3.5,1.4,5.4,1.7c1.2,0.2,2.4,0.4,3.5,0.5c1.6,0.2,3.1,0.2,4.7,0.1c1.2,0,2.5-0.1,3.7-0.2
	c1.3-0.1,2.5-0.2,3.8-0.4c1.8-0.3,3.7-0.6,5.5-1.1c2.2-0.6,4.4-1.2,6.5-2.1c1.8-0.7,3.5-1.5,5.2-2.5c0,0,0.1,0,0.1-0.1
	c0,0.1,0,0.1,0,0.2c0,1.3,0,2.5,0,3.8c0,0.2-0.1,0.2-0.2,0.3c-2.2,1.2-4.5,2.1-6.9,2.8c-2.5,0.8-5,1.4-7.6,1.9
	c-1.3,0.2-2.7,0.4-4,0.6c-1.1,0.1-2.2,0.2-3.3,0.3c-1.5,0.1-3,0.1-4.5,0.1c-1.1,0-2.3-0.1-3.4-0.2c-2.3-0.2-4.6-0.7-6.8-1.5
	c-2.4-0.8-4.5-2-6.4-3.7c-1.8-1.7-3-3.8-3.4-6.3c-0.1-0.6-0.2-1.2-0.2-1.8c0-0.1,0-0.1-0.1-0.2C0.3,22.9,0.3,22.4,0.3,21.9z
	 M49.1,24.4c2.5-1.3,4.5-3.1,5.9-5.6c1.1-1.9,1.6-3.9,1.6-6c0-0.6-0.1-1.2-0.2-1.8c-0.4-2.7-1.7-4.8-3.8-6.5
	c-1.6-1.3-3.3-2.2-5.2-2.9c-1.9-0.7-3.8-1.1-5.7-1.3c-1.2-0.1-2.3-0.2-3.5-0.3c-1.1,0-2.2,0-3.3,0c-1,0-2,0.1-3,0.2
	c-1.4,0.2-2.7,0.4-4.1,0.6c-3.1,0.6-6.2,1.5-9.1,2.7c-2.1,0.8-4.1,1.8-6,3c-0.1,0-0.2,0.1-0.2,0.2c0,0.3,0,0.6,0,0.9
	c0.1,0,0.2-0.1,0.2-0.1c0.8-0.4,1.7-0.8,2.5-1.2c4.5-1.9,9.1-3.3,13.9-4c1.6-0.2,3.2-0.4,4.8-0.5c1,0,2.1,0,3.1,0
	c1.5,0,3,0.2,4.4,0.4c1.7,0.3,3.3,0.7,4.9,1.3c2,0.8,3.7,1.9,5.1,3.5c1.6,2,2.3,4.2,2,6.8c-0.2,1.6-0.8,3.1-1.8,4.5
	s-2.2,2.5-3.6,3.3c-0.1,0.1-0.2,0.2-0.2,0.3c0,0.9,0,1.7,0,2.6c0,0.1,0,0.1,0,0.2C48.5,24.6,48.8,24.5,49.1,24.4z M39.5,21.7h-0.2
	c-0.2,0.1-0.3,0.3-0.5,0.4c-0.8,0.6-1.6,0.7-2.5,0.6c-0.6-0.1-1-0.3-1.4-0.7c-0.4-0.5-0.6-1-0.7-1.6c0-0.3,0-0.3,0.3-0.3
	c2.2,0,4.5,0,6.7,0c0.1,0,0.1,0,0.2,0s0.2-0.1,0.2-0.1c0-1,0-2-0.3-3c-0.3-1.1-0.8-2-1.7-2.7c-1.1-0.8-2.3-1-3.6-0.8
	c-2.2,0.3-3.5,1.5-4.2,3.6c-0.4,1.4-0.4,2.8-0.1,4.1c0.3,1.2,0.8,2.2,1.8,2.9c0.8,0.6,1.7,0.9,2.7,1c1.1,0.1,2.1,0,3.1-0.4
	c0.7-0.3,1.4-0.8,1.9-1.3C40.6,22.7,40.1,22.2,39.5,21.7z M34.5,18.1c-0.3,0-0.3,0.1-0.3-0.3c0-1,0.7-1.9,1.7-2.1
	c1.4-0.3,2.5,0.4,2.7,1.8c0.1,0.6,0.1,0.6-0.5,0.6s-1.1,0-1.7,0S35.1,18.1,34.5,18.1z M14,24.6c0,0.2,0.1,0.3,0.2,0.2
	c0.8,0,1.6,0,2.3,0c0.2,0,0.2-0.1,0.2-0.3c0-1.2,0-2.5,0-3.7c0-1.6,0-3.3,0-4.9c0-0.1,0-0.2,0.2-0.2c0.8,0,1.6,0,2.4,0
	s1.1,0.5,1,1.1c0,2.6,0,5.1,0,7.7c0,0.2,0,0.3,0.3,0.3c0.8,0,1.5,0,2.3,0c0.3,0,0.3,0,0.3-0.3c0-2.5,0-5.1,0-7.6c0-0.2,0-0.5,0-0.7
	c-0.2-1.7-1.4-2.8-3.1-2.8c-2,0-3.9,0-5.9,0c-0.2,0-0.3,0.1-0.3,0.3c0,1.8,0,3.6,0,5.4C14,20.9,14,22.8,14,24.6z M28.4,16
	c0-0.2,0.1-0.3,0.3-0.3c0.6,0,1.1,0,1.7,0c0.2,0,0.2-0.1,0.2-0.2c0-0.6,0-1.2,0-1.8c0-0.2-0.1-0.2-0.2-0.2c-0.6,0-1.1,0-1.7,0
	c-0.2,0-0.3-0.1-0.3-0.3c0-0.9,0-1.8,0-2.6c0-0.2-0.1-0.2-0.3-0.2c-0.8,0-1.5,0-2.3,0c-0.3,0-0.3,0-0.3,0.3c0,3.6,0,7.1,0,10.7
	c0,0.3,0,0.5,0,0.8c0.1,1.3,1,2.4,2.3,2.6c0.8,0.1,1.6,0.1,2.5,0.1c0,0,0.1-0.1,0.1-0.2c0-0.7,0-1.3,0-2c0-0.1-0.1-0.2-0.2-0.2
	c-0.3,0-0.6,0-0.9,0c-0.7,0-1-0.3-1-1c0-0.9,0-1.8,0-2.7C28.4,17.8,28.4,16.9,28.4,16z M46.1,8.9c0-0.2-0.1-0.3-0.3-0.3
	c-0.8,0-1.5,0-2.3,0c-0.3,0-0.3,0-0.3,0.3c0,4,0,8,0,12c0,0.4,0,0.8,0,1.2c0,0.5,0.2,1,0.6,1.4c0.5,0.6,1.2,0.9,1.9,1
	c0.3,0.1,0.3,0,0.3-0.3c0-2.6,0-5.1,0-7.7C46.1,14.1,46.1,11.5,46.1,8.9z M11.4,24.7c0-3.7,0-7.4,0-11c0-0.2-0.1-0.3-0.3-0.3
	c-0.8,0-1.6,0-2.3,0c-0.2,0-0.3,0.1-0.3,0.3c0,2.7,0,5.4,0,8.1c0,0.4,0.1,0.9,0.2,1.3c0.3,1.1,1.5,1.8,2.6,1.8
	C11.4,24.9,11.4,24.8,11.4,24.7z M11.1,11.8c0.2,0,0.2,0,0.2-0.2c0-0.7,0-1.5,0-2.2c0-0.2,0-0.2-0.2-0.2c-0.8,0-1.6,0-2.4,0
	c-0.2,0-0.2,0-0.2,0.2c0,0.8,0,1.5,0,2.3c0,0.2,0,0.2,0.2,0.2c0.4,0,0.8,0,1.2,0C10.3,11.8,10.7,11.8,11.1,11.8z"/>
</svg>
