<?xml version="1.0" encoding="utf-8"?>
<!-- Generator: Adobe Illustrator 19.2.1, SVG Export Plug-In . SVG Version: 6.00 Build 0)  -->
<svg version="1.1" id="Layer_1" xmlns="http://www.w3.org/2000/svg" xmlns:xlink="http://www.w3.org/1999/xlink" x="0px" y="0px"
	 viewBox="0 0 42.6 50.6" enable-background="new 0 0 42.6 50.6" xml:space="preserve">
<path fill="#3C464C" d="M31.6,0c2.5,0,4.9,0,7.3,0c0.3,9.8,0.6,19.5,0.9,29.3c1,0,1.9,0,2.8,0c0,6.5,0,21.3,0,21.3H0
	c0,0,0-20.4,0-29.6c2.8,2.8,5.7,5.7,8.6,8.6c0.1-0.1,0.2-0.1,0.3-0.2c0-2.8,0-5.6,0-8.6c3,3,5.9,5.8,9,8.9c0-3.1,0-6,0-9.1
	c1.2,1.1,2.1,1.9,3,2.8c1.6,1.5,3.4,2.9,4.8,4.5s3,1.6,4.9,1.4C31,19.5,31.3,9.8,31.6,0z"/>
</svg>
