<?xml version="1.0" encoding="utf-8"?>
<!-- Generator: Adobe Illustrator 19.2.1, SVG Export Plug-In . SVG Version: 6.00 Build 0)  -->
<svg version="1.1" id="Layer_1" xmlns="http://www.w3.org/2000/svg" xmlns:xlink="http://www.w3.org/1999/xlink" x="0px" y="0px"
	 viewBox="0 0 71.7 45.3" enable-background="new 0 0 71.7 45.3" xml:space="preserve">
<path fill="#3C464C" d="M53.2,39.4c-5.9,0-11.9,0-17.8,0c-0.8,0-1.1,0.2-1.1,1c0,1.4,0,2.8-0.2,4.2c-0.1,0.6-0.3,0.7-0.8,0.7
	c-7.4,0-14.7,0-22.1,0c-0.5,0-0.7-0.2-0.8-0.7c-0.1-1.4-0.3-2.8-0.3-4.2c0-0.7-0.3-0.9-1-0.9c-2.6,0-5.3,0-7.9,0
	c-0.8,0-1.2-0.2-1.2-1.1C0,36,0,36,2.4,36c2,0,4,0,6,0c1.7,0,1.5,0.2,1.5-1.5c0.1-3.4,0.4-6.8,1.5-10c1.5-4.5,5-7,9.7-7.1
	c2,0,4,0,5.8,0.7c3.4,1.3,5.1,4,6.1,7.3c0.8,2.7,1.1,5.4,1.1,8.2c0,0.2,0,0.5,0,0.7c0,1.6,0,1.6,1.6,1.6c2.7,0,2.6,0,2.7-2.7
	c0.1-3.1,0.5-6.2,1.6-9.2c1.6-4.4,4.9-6.7,9.5-6.7c2.5,0,4.9,0.3,7,1.8c2.6,1.9,3.7,4.7,4.4,7.7c0.6,2.7,0.9,5.4,0.8,8.1
	c0,0.9,0.3,1,1.1,1c2.6,0,5.3,0,7.9,0c0.8,0,1,0.2,1,1c0,2.5,0,2.5-2.4,2.5C64.1,39.4,58.6,39.4,53.2,39.4z M50.2,36
	c2.5,0,4.9,0,7.4,0c0.8,0,1.1-0.3,1.1-1.1c-0.1-1.2-0.1-2.5-0.2-3.7c-0.3-2.5-0.7-5.1-1.9-7.4c-0.9-1.7-2.3-2.6-4.1-3
	c-0.9-0.2-1.8-0.2-2.7-0.2c-3,0-5,1.4-6.1,4.2c-1.3,3.3-1.5,6.8-1.6,10.3c0,0.8,0.2,0.9,0.9,0.9C45.4,36,47.8,36,50.2,36z
	 M22.2,13.7c3.7,0,6.9-3.1,6.9-6.8c0-3.7-3.1-6.8-6.8-6.8c-3.7,0-6.7,3.1-6.7,6.8C15.5,10.6,18.5,13.6,22.2,13.7z M43.5,6.8
	c0-3.6,3.1-6.8,6.8-6.8c3.5,0,6.8,2.4,6.8,6.8c0.1,3.8-2.8,6.7-6.8,6.8C46.6,13.7,43.5,10.6,43.5,6.8z M47,6.9
	c0,1.9,1.5,3.4,3.3,3.4c1.9,0,3.3-1.5,3.4-3.4c0-1.9-1.5-3.3-3.3-3.3C48.4,3.5,47,5,47,6.9z"/>
</svg>
