<?xml version="1.0" encoding="utf-8"?>
<!-- Generator: Adobe Illustrator 19.2.1, SVG Export Plug-In . SVG Version: 6.00 Build 0)  -->
<svg version="1.1" id="Layer_1" xmlns="http://www.w3.org/2000/svg" xmlns:xlink="http://www.w3.org/1999/xlink" x="0px" y="0px"
	 viewBox="0 0 56 56" enable-background="new 0 0 56 56" xml:space="preserve">
<path fill="#3E474E" d="M34.1,27.8l0.5,0.3l-0.5,0.3l-4.7,2.4c-1.6,0.8-3.1,1.6-4.7,2.4l-0.5,0.2v-0.5v-9.7v-0.5l0.5,0.2
	c1.4,0.7,2.8,1.5,4.2,2.2C30.7,26,32.4,26.9,34.1,27.8z M56,28c0,15.5-12.5,28-28,28S0,43.5,0,28S12.5,0,28,0S56,12.5,56,28z
	 M43.4,28.3L43.4,28.3c0-2.3,0-4.7-0.5-7c-0.2-0.8-0.6-1.6-1.2-2.1s-1.4-0.9-2.2-1c-1.8-0.2-3.7-0.3-5.5-0.4s-3.7-0.1-5.5-0.1
	s-3.7,0-5.5,0.1s-3.7,0.2-5.5,0.4c-0.8,0.1-1.6,0.5-2.2,1s-1,1.3-1.2,2.1c-0.3,1.1-0.4,2.3-0.5,3.5s-0.1,2.4-0.1,3.5s0,2.3,0.1,3.5
	s0.2,2.4,0.5,3.5c0.2,0.8,0.6,1.6,1.2,2.1s1.4,0.9,2.2,1c1.8,0.2,3.7,0.3,5.5,0.4s3.7,0.1,5.5,0c1.8,0,3.7,0,5.5,0
	c1.8-0.1,3.7-0.2,5.5-0.4c0.8-0.1,1.6-0.5,2.2-1s1-1.3,1.2-2.1c0.3-1.1,0.4-2.3,0.5-3.5C43.4,30.7,43.4,29.5,43.4,28.3L43.4,28.3
	L43.4,28.3z"/>
</svg>
