<?xml version="1.0" encoding="utf-8"?>
<!-- Generator: Adobe Illustrator 19.2.1, SVG Export Plug-In . SVG Version: 6.00 Build 0)  -->
<svg version="1.1" id="Layer_1" xmlns="http://www.w3.org/2000/svg" xmlns:xlink="http://www.w3.org/1999/xlink" x="0px" y="0px"
	 viewBox="0 0 58.2 58.2" enable-background="new 0 0 58.2 58.2" xml:space="preserve">
<path opacity="0.66" fill="#3E474E" enable-background="new    " d="M29.1,58.2c-16,0-29.1-13-29.1-29.1S13,0,29.1,0
	s29.1,13,29.1,29.1S45.2,58.2,29.1,58.2z M29.1,2.2C14.2,2.2,2.2,14.3,2.2,29.1S14.3,56,29.1,56S56,43.9,56,29.1S44,2.2,29.1,2.2z
	 M44.1,29.1c0-2.3,0-4.7-0.5-7c-0.2-0.8-0.6-1.6-1.2-2.1l0,0c-0.6-0.5-1.4-0.9-2.2-1c-1.8-0.2-3.7-0.3-5.5-0.4s-3.7-0.1-5.5-0.1
	s-3.7,0-5.5,0.1S20,18.8,18.2,19c-0.8,0.1-1.6,0.5-2.2,1s-1,1.3-1.2,2.1c-0.3,1.1-0.4,2.3-0.5,3.5s-0.1,2.4-0.1,3.5s0,2.3,0.1,3.5
	s0.2,2.4,0.5,3.5c0.2,0.8,0.6,1.6,1.2,2.1s1.4,0.9,2.2,1c1.8,0.2,3.7,0.3,5.5,0.4s3.7,0.1,5.5,0.1s3.7,0,5.5-0.1s3.7-0.2,5.5-0.4
	c0.8-0.1,1.6-0.5,2.2-1s1-1.3,1.2-2.1c0.3-1.1,0.4-2.3,0.5-3.5C44.1,31.5,44.1,30.3,44.1,29.1L44.1,29.1L44.1,29.1L44.1,29.1z
	 M34.8,29.1l-4.7,2.4c-1.6,0.8-3.1,1.6-4.7,2.4l-0.5,0.2v-0.5v-9.7v-0.5l0.5,0.2c1.4,0.7,2.8,1.5,4.2,2.2c1.7,0.9,3.4,1.8,5.1,2.7
	l0.5,0.3L34.8,29.1z"/>
</svg>
